<svg id="svg" version="1.1" xmlns="http://www.w3.org/2000/svg" xmlns:xlink="http://www.w3.org/1999/xlink" width="400" height="400" viewBox="0, 0, 400,400"><g id="svgg"><path id="path0" d="M193.472 50.835 C 189.491 51.970,181.625 56.654,181.592 57.910 C 181.588 58.069,180.956 58.920,180.187 59.800 C 177.078 63.359,174.800 70.035,174.800 75.586 C 174.800 87.832,163.897 100.033,153.000 99.981 C 142.415 99.931,132.863 91.364,131.613 80.800 L 131.305 78.200 131.253 80.402 C 130.981 91.775,145.273 102.720,156.844 100.000 C 161.791 98.837,168.750 93.731,170.799 89.761 C 171.129 89.122,171.489 88.510,171.600 88.400 C 171.831 88.170,172.768 86.180,173.200 85.000 C 173.361 84.560,173.677 83.750,173.901 83.200 C 174.758 81.099,175.189 78.882,175.378 75.600 C 175.631 71.202,175.992 68.695,176.441 68.220 C 176.638 68.011,176.800 67.534,176.800 67.161 C 176.800 65.086,181.123 58.762,184.345 56.125 C 196.679 46.028,214.440 49.828,221.989 64.180 C 222.655 65.445,223.200 66.812,223.200 67.217 C 223.200 67.622,223.356 68.049,223.547 68.167 C 223.958 68.421,224.336 70.803,224.789 76.000 C 225.220 80.940,225.541 82.328,226.847 84.895 C 227.041 85.277,227.200 85.760,227.200 85.968 C 227.200 87.150,230.576 91.804,233.542 94.711 C 245.024 105.964,267.289 98.110,268.607 82.342 L 268.786 80.200 268.250 82.400 C 262.960 104.126,235.049 105.759,227.241 84.800 C 226.954 84.030,226.581 83.040,226.413 82.600 C 225.686 80.701,225.200 77.803,225.200 75.371 C 225.200 65.821,219.709 56.919,211.135 52.569 C 206.061 49.994,198.889 49.290,193.472 50.835 M110.000 62.816 C 123.686 63.241,128.511 66.214,130.744 75.600 L 131.172 77.400 130.999 75.542 C 130.158 66.480,123.460 62.355,109.800 62.485 L 101.800 62.561 110.000 62.816 M280.178 62.991 C 273.963 64.955,269.306 70.433,268.967 76.178 L 268.825 78.600 269.342 76.000 C 270.314 71.119,273.517 66.453,277.000 64.846 C 280.662 63.158,281.152 63.081,290.000 62.811 L 298.200 62.561 290.000 62.520 C 284.340 62.492,281.298 62.638,280.178 62.991 M81.199 135.100 C 81.199 140.778,82.518 150.870,84.063 157.000 C 85.352 162.115,86.025 164.455,86.449 165.295 C 86.642 165.677,86.800 166.316,86.800 166.715 C 86.800 167.114,86.943 167.611,87.118 167.820 C 87.293 168.029,87.665 168.920,87.945 169.800 C 88.224 170.680,88.616 171.760,88.814 172.200 C 89.013 172.640,89.916 174.710,90.820 176.800 C 92.683 181.108,94.754 185.017,97.861 190.095 L 100.000 193.591 84.305 193.695 C 68.944 193.798,68.609 193.817,68.528 194.600 C 68.478 195.092,68.521 195.156,68.640 194.765 C 68.973 193.675,235.471 193.048,307.714 193.865 L 331.159 194.131 331.320 195.165 C 331.457 196.049,331.489 196.011,331.540 194.900 L 331.600 193.600 315.773 193.600 L 299.946 193.600 300.726 192.500 C 302.649 189.789,307.393 181.071,309.270 176.800 C 312.743 168.893,314.791 162.593,316.420 154.800 C 317.784 148.278,318.781 139.992,318.792 135.100 L 318.800 131.200 200.000 131.200 L 81.200 131.200 81.199 135.100 M281.829 150.856 C 289.352 154.392,289.342 164.413,281.813 167.952 C 277.290 170.078,271.632 167.741,269.552 162.888 C 266.343 155.401,274.497 147.409,281.829 150.856 M252.720 156.962 C 257.347 159.370,257.411 165.648,252.832 167.984 C 247.536 170.686,241.868 165.315,244.475 160.064 C 246.093 156.805,249.763 155.424,252.720 156.962 M68.873 199.600 C 68.858 200.370,68.995 201.720,69.177 202.600 C 69.636 204.821,69.674 202.550,69.220 200.000 C 68.922 198.322,68.898 198.295,68.873 199.600 M330.592 201.338 C 330.439 202.769,330.394 204.178,330.493 204.470 C 330.591 204.761,330.803 203.678,330.964 202.061 C 331.125 200.445,331.169 199.036,331.063 198.930 C 330.957 198.824,330.745 199.908,330.592 201.338 M69.673 207.600 C 69.658 208.370,69.795 209.720,69.977 210.600 C 70.436 212.821,70.474 210.550,70.020 208.000 C 69.722 206.322,69.698 206.295,69.673 207.600 M329.792 209.338 C 329.639 210.769,329.594 212.178,329.693 212.470 C 329.791 212.761,330.003 211.678,330.164 210.061 C 330.325 208.445,330.369 207.036,330.263 206.930 C 330.157 206.824,329.945 207.908,329.792 209.338 M70.488 215.600 C 70.478 216.370,70.610 217.900,70.782 219.000 C 71.034 220.618,71.097 220.733,71.112 219.600 C 71.122 218.830,70.990 217.300,70.818 216.200 C 70.566 214.582,70.503 214.467,70.488 215.600 M329.068 216.959 C 328.920 218.033,328.824 219.652,328.853 220.556 C 328.886 221.579,329.035 220.992,329.248 219.000 C 329.627 215.450,329.489 213.887,329.068 216.959 M71.281 224.200 C 71.275 224.860,71.410 226.300,71.582 227.400 C 71.887 229.359,71.894 229.367,71.924 227.800 C 71.940 226.920,71.805 225.480,71.623 224.600 C 71.340 223.230,71.290 223.173,71.281 224.200 M328.253 225.236 C 328.114 225.931,328.024 227.423,328.053 228.550 C 328.099 230.314,328.153 230.157,328.441 227.421 C 328.788 224.129,328.693 223.033,328.253 225.236 M72.275 234.200 C 72.398 235.740,72.566 237.075,72.649 237.167 C 72.926 237.473,72.710 233.816,72.379 232.600 C 72.173 231.843,72.135 232.434,72.275 234.200 M327.459 233.488 C 327.321 234.319,327.231 235.810,327.258 236.800 C 327.292 238.084,327.402 237.688,327.641 235.421 C 327.993 232.078,327.884 230.916,327.459 233.488 M73.088 243.000 C 73.209 244.760,73.374 246.275,73.454 246.367 C 73.729 246.680,73.506 242.203,73.187 241.000 C 72.999 240.290,72.959 241.106,73.088 243.000 M326.659 241.888 C 326.521 242.719,326.432 244.390,326.460 245.600 C 326.501 247.363,326.575 247.087,326.829 244.207 C 327.163 240.433,327.082 239.328,326.659 241.888 M73.888 251.000 C 74.009 252.760,74.174 254.275,74.254 254.367 C 74.529 254.680,74.306 250.203,73.987 249.000 C 73.799 248.290,73.759 249.106,73.888 251.000 M325.859 249.888 C 325.721 250.719,325.632 252.390,325.660 253.600 C 325.701 255.363,325.775 255.087,326.029 252.207 C 326.363 248.433,326.282 247.328,325.859 249.888 M74.709 259.800 C 74.820 261.780,74.976 263.475,75.055 263.567 C 75.322 263.873,75.109 258.616,74.806 257.400 C 74.642 256.740,74.598 257.820,74.709 259.800 M324.928 261.200 C 324.928 262.630,325.001 263.215,325.089 262.500 C 325.178 261.785,325.178 260.615,325.089 259.900 C 325.001 259.185,324.928 259.770,324.928 261.200 M75.506 268.000 C 75.619 269.870,75.776 271.475,75.856 271.567 C 76.122 271.874,75.909 267.014,75.603 265.800 C 75.436 265.139,75.392 266.128,75.506 268.000 M324.131 269.800 C 324.133 271.340,324.205 271.921,324.292 271.091 C 324.379 270.261,324.377 269.001,324.289 268.291 C 324.200 267.581,324.129 268.260,324.131 269.800 M76.309 276.200 C 76.420 278.180,76.576 279.875,76.655 279.967 C 76.922 280.273,76.709 275.016,76.406 273.800 C 76.242 273.140,76.198 274.220,76.309 276.200 M323.276 277.244 C 323.234 278.478,323.115 280.368,323.011 281.444 L 322.822 283.400 323.229 281.446 C 323.453 280.371,323.572 278.481,323.494 277.246 L 323.351 275.000 323.276 277.244 M77.276 285.276 C 77.234 286.528,77.366 287.655,77.569 287.781 C 77.771 287.906,78.047 289.222,78.181 290.704 C 78.315 292.187,78.595 295.110,78.803 297.200 C 79.466 303.858,79.978 309.220,80.599 316.000 C 81.395 324.692,81.964 330.634,82.400 334.800 C 82.596 336.670,82.961 340.540,83.212 343.400 C 84.185 354.473,88.142 359.832,96.906 361.941 C 99.585 362.586,300.964 362.601,303.354 361.956 C 307.279 360.897,308.721 360.082,311.406 357.402 C 314.739 354.074,316.150 351.025,316.590 346.200 C 316.730 344.660,317.020 341.600,317.235 339.400 C 318.129 330.211,318.381 327.581,318.766 323.400 C 318.988 320.980,319.354 317.110,319.578 314.800 C 319.802 312.490,320.249 307.720,320.570 304.200 C 321.796 290.780,322.092 288.189,322.441 287.820 C 322.638 287.611,322.773 286.621,322.740 285.620 L 322.680 283.800 322.440 285.600 L 322.200 287.400 199.920 287.501 L 77.640 287.601 77.496 285.301 L 77.351 283.000 77.276 285.276 M152.720 306.962 C 157.347 309.370,157.411 315.648,152.832 317.984 C 147.536 320.686,141.868 315.315,144.475 310.064 C 146.093 306.805,149.763 305.424,152.720 306.962 M274.917 319.282 C 277.028 319.915,280.085 322.972,280.718 325.083 C 283.578 334.629,272.434 341.577,265.299 334.696 C 258.339 327.984,265.525 316.468,274.917 319.282 M125.803 325.946 C 128.922 327.363,131.200 330.932,131.200 334.400 C 131.200 344.874,116.493 347.099,112.985 337.156 C 110.395 329.818,118.577 322.663,125.803 325.946 " stroke="none" fill="#d4b48c" fill-rule="evenodd"></path><path id="path1" d="M188.000 6.400 C 188.000 6.629,186.800 6.800,185.200 6.800 C 183.600 6.800,182.400 6.971,182.400 7.200 C 182.400 7.420,181.601 7.600,180.624 7.600 C 179.647 7.600,178.736 7.780,178.600 8.000 C 178.464 8.220,177.681 8.400,176.860 8.400 C 176.040 8.400,174.331 8.670,173.065 9.000 C 171.798 9.330,170.410 9.600,169.980 9.600 C 169.551 9.600,169.200 9.780,169.200 10.000 C 169.200 10.220,168.671 10.400,168.024 10.400 C 167.377 10.400,166.736 10.580,166.600 10.800 C 166.464 11.020,165.947 11.200,165.452 11.200 C 164.956 11.200,163.805 11.560,162.894 12.000 C 161.984 12.440,160.971 12.800,160.643 12.800 C 160.315 12.800,159.936 12.980,159.800 13.200 C 159.664 13.420,159.113 13.600,158.576 13.600 C 158.039 13.600,157.600 13.780,157.600 14.000 C 157.600 14.220,157.240 14.400,156.800 14.400 C 156.360 14.400,156.000 14.580,156.000 14.800 C 156.000 15.020,155.728 15.200,155.395 15.200 C 155.062 15.200,154.432 15.380,153.995 15.600 C 153.558 15.820,152.842 16.180,152.405 16.400 C 151.968 16.620,151.338 16.800,151.005 16.800 C 150.672 16.800,150.400 16.980,150.400 17.200 C 150.400 17.420,150.040 17.600,149.600 17.600 C 149.160 17.600,148.800 17.780,148.800 18.000 C 148.800 18.220,148.440 18.400,148.000 18.400 C 147.560 18.400,147.200 18.580,147.200 18.800 C 147.200 19.020,146.964 19.200,146.675 19.200 C 146.387 19.200,145.764 19.560,145.292 20.000 C 144.820 20.440,144.156 20.800,143.817 20.800 C 143.478 20.800,143.200 20.980,143.200 21.200 C 143.200 21.420,142.930 21.600,142.600 21.600 C 142.270 21.600,142.000 21.780,142.000 22.000 C 142.000 22.220,141.680 22.400,141.288 22.400 C 140.897 22.400,140.317 22.760,140.000 23.200 C 139.683 23.640,139.103 24.000,138.712 24.000 C 138.320 24.000,138.000 24.180,138.000 24.400 C 138.000 24.620,137.717 24.800,137.371 24.800 C 137.026 24.800,136.492 25.025,136.185 25.300 C 134.893 26.459,134.414 26.800,134.079 26.800 C 133.884 26.800,133.398 27.160,133.000 27.600 C 132.602 28.040,132.056 28.400,131.786 28.400 C 131.517 28.400,130.555 29.120,129.648 30.000 C 128.741 30.880,127.857 31.600,127.683 31.600 C 127.509 31.600,126.331 32.680,125.065 34.000 C 123.800 35.320,122.586 36.400,122.368 36.400 C 121.584 36.400,111.353 47.221,109.252 50.272 C 108.674 51.112,107.885 52.091,107.500 52.447 C 107.115 52.803,106.800 53.348,106.800 53.659 C 106.800 53.969,106.440 54.483,106.000 54.800 C 105.560 55.117,105.200 55.657,105.200 56.000 C 105.200 56.343,104.840 56.883,104.400 57.200 C 103.960 57.517,103.600 58.107,103.600 58.512 C 103.600 58.916,103.436 59.146,103.235 59.021 C 103.034 58.897,102.630 59.336,102.337 59.998 C 102.044 60.659,101.669 61.200,101.502 61.200 C 101.336 61.200,101.200 61.470,101.200 61.800 C 101.200 62.314,102.391 62.401,109.500 62.404 C 125.025 62.412,130.024 66.111,131.410 78.619 C 132.677 90.056,138.389 96.892,148.800 99.434 C 161.183 102.458,174.800 89.968,174.800 75.586 C 174.800 70.035,177.078 63.359,180.187 59.800 C 180.956 58.920,181.588 58.069,181.592 57.910 C 181.604 57.469,187.172 53.404,189.059 52.457 C 205.376 44.275,225.200 56.844,225.200 75.371 C 225.200 77.803,225.686 80.701,226.413 82.600 C 226.581 83.040,226.954 84.030,227.241 84.800 C 235.959 108.201,266.583 103.025,268.759 77.783 C 269.734 66.472,275.473 62.412,290.500 62.404 C 297.609 62.401,298.800 62.314,298.800 61.800 C 298.800 61.470,298.664 61.200,298.498 61.200 C 298.331 61.200,297.956 60.659,297.663 59.998 C 297.370 59.336,296.966 58.897,296.765 59.021 C 296.564 59.146,296.400 58.916,296.400 58.512 C 296.400 58.107,296.040 57.517,295.600 57.200 C 295.160 56.883,294.800 56.343,294.800 56.000 C 294.800 55.657,294.440 55.117,294.000 54.800 C 293.560 54.483,293.200 53.985,293.200 53.694 C 293.200 53.402,292.795 52.730,292.300 52.201 C 291.060 50.875,290.612 50.308,290.145 49.474 C 289.034 47.488,277.486 35.600,276.668 35.600 C 276.398 35.600,275.912 35.212,275.588 34.738 C 275.265 34.263,274.665 33.588,274.255 33.238 C 273.846 32.887,273.274 32.375,272.984 32.100 C 272.694 31.825,272.354 31.600,272.229 31.600 C 272.104 31.600,271.259 30.880,270.352 30.000 C 269.445 29.120,268.455 28.400,268.152 28.400 C 267.848 28.400,267.600 28.250,267.600 28.068 C 267.600 27.885,267.105 27.480,266.500 27.168 C 265.895 26.855,265.181 26.420,264.914 26.200 C 264.647 25.980,264.159 25.575,263.831 25.300 C 263.502 25.025,262.956 24.800,262.617 24.800 C 262.278 24.800,262.000 24.620,262.000 24.400 C 262.000 24.180,261.680 24.000,261.288 24.000 C 260.897 24.000,260.317 23.640,260.000 23.200 C 259.683 22.760,259.193 22.400,258.912 22.400 C 258.630 22.400,258.400 22.220,258.400 22.000 C 258.400 21.780,258.040 21.600,257.600 21.600 C 257.160 21.600,256.800 21.420,256.800 21.200 C 256.800 20.980,256.530 20.800,256.200 20.800 C 255.870 20.800,255.600 20.654,255.600 20.475 C 255.600 20.296,254.970 19.902,254.200 19.600 C 253.430 19.298,252.800 18.904,252.800 18.725 C 252.800 18.546,252.440 18.400,252.000 18.400 C 251.560 18.400,251.200 18.220,251.200 18.000 C 251.200 17.780,250.840 17.600,250.400 17.600 C 249.960 17.600,249.600 17.420,249.600 17.200 C 249.600 16.980,249.240 16.800,248.800 16.800 C 248.360 16.800,248.000 16.620,248.000 16.400 C 248.000 16.180,247.651 16.000,247.224 16.000 C 246.797 16.000,246.336 15.820,246.200 15.600 C 246.064 15.380,245.513 15.200,244.976 15.200 C 244.439 15.200,244.000 15.020,244.000 14.800 C 244.000 14.580,243.640 14.400,243.200 14.400 C 242.760 14.400,242.400 14.220,242.400 14.000 C 242.400 13.780,241.961 13.600,241.424 13.600 C 240.887 13.600,240.336 13.420,240.200 13.200 C 240.064 12.980,239.691 12.800,239.372 12.800 C 239.053 12.800,238.028 12.468,237.096 12.062 C 234.690 11.015,232.684 10.400,231.672 10.400 C 231.192 10.400,230.800 10.220,230.800 10.000 C 230.800 9.780,230.338 9.600,229.774 9.600 C 229.209 9.600,228.416 9.423,228.012 9.206 C 227.607 8.990,225.999 8.694,224.438 8.549 C 222.877 8.404,221.600 8.131,221.600 7.943 C 221.600 7.754,220.700 7.600,219.600 7.600 C 218.500 7.600,217.600 7.420,217.600 7.200 C 217.600 6.971,216.400 6.800,214.800 6.800 C 213.200 6.800,212.000 6.629,212.000 6.400 C 212.000 6.142,207.733 6.000,200.000 6.000 C 192.267 6.000,188.000 6.142,188.000 6.400 M84.443 193.900 L 68.685 194.009 68.938 196.905 C 69.077 198.497,69.364 201.510,69.576 203.600 C 70.052 208.295,70.696 214.862,71.225 220.400 C 71.446 222.710,71.799 226.400,72.011 228.600 C 72.223 230.800,72.585 234.580,72.816 237.000 C 73.046 239.420,73.399 243.020,73.600 245.000 C 73.945 248.400,74.376 252.886,75.197 261.600 C 75.394 263.690,75.755 267.380,75.998 269.800 C 76.567 275.450,77.067 280.593,77.429 284.501 L 77.716 287.601 199.958 287.501 L 322.200 287.400 322.483 285.200 C 322.639 283.990,322.967 280.840,323.213 278.200 C 323.459 275.560,323.830 271.690,324.038 269.600 C 324.246 267.510,324.593 263.955,324.808 261.700 C 325.323 256.312,325.954 249.864,326.403 245.400 C 326.602 243.420,326.961 239.730,327.202 237.200 C 327.442 234.670,327.807 230.890,328.011 228.800 C 328.216 226.710,328.562 223.110,328.780 220.800 C 329.459 213.618,329.968 208.357,330.385 204.200 C 330.606 202.000,330.903 198.835,331.046 197.166 L 331.305 194.132 307.787 193.866 C 286.148 193.621,120.954 193.646,84.443 193.900 " stroke="none" fill="#88604e" fill-rule="evenodd"></path><path id="path2" d="M30.829 135.100 C 30.879 137.465,31.060 139.582,31.231 139.805 C 31.401 140.028,31.588 141.963,31.645 144.105 C 31.702 146.247,31.895 148.000,32.074 148.000 C 32.253 148.000,32.400 149.800,32.400 152.000 C 32.400 154.400,32.560 156.000,32.800 156.000 C 33.038 156.000,33.200 157.522,33.200 159.767 C 33.200 161.838,33.368 163.593,33.574 163.667 C 33.779 163.740,33.991 165.735,34.044 168.100 C 34.097 170.465,34.288 172.400,34.470 172.400 C 34.651 172.400,34.800 174.121,34.800 176.224 C 34.800 178.671,34.944 179.958,35.200 179.800 C 35.457 179.641,35.600 181.005,35.600 183.603 C 35.600 185.830,35.772 187.975,35.983 188.368 C 36.194 188.762,36.395 190.910,36.430 193.142 C 36.465 195.374,36.652 197.200,36.847 197.200 C 37.041 197.200,37.200 199.000,37.200 201.200 C 37.200 203.600,37.360 205.200,37.600 205.200 C 37.841 205.200,38.000 206.867,38.000 209.400 C 38.000 211.933,38.159 213.600,38.400 213.600 C 38.640 213.600,38.800 215.189,38.800 217.567 C 38.800 219.748,38.969 221.593,39.176 221.667 C 39.383 221.740,39.585 223.510,39.625 225.600 C 39.665 227.690,39.841 229.582,40.018 229.804 C 40.194 230.026,40.436 231.826,40.555 233.804 C 41.088 242.667,42.065 252.928,42.421 253.400 C 42.587 253.620,42.662 255.410,42.588 257.377 C 42.514 259.344,42.620 261.264,42.823 261.643 C 43.026 262.023,43.229 263.923,43.274 265.867 C 43.319 267.810,43.495 269.497,43.665 269.615 C 43.835 269.734,43.998 271.624,44.029 273.815 C 44.059 276.007,44.230 277.980,44.409 278.201 C 44.587 278.422,44.784 280.312,44.846 282.401 C 44.907 284.490,45.098 286.393,45.268 286.628 C 45.439 286.864,45.621 288.754,45.673 290.828 C 45.725 292.903,45.897 294.693,46.057 294.807 C 46.216 294.921,46.381 296.631,46.424 298.607 C 46.466 300.583,46.651 302.489,46.834 302.842 C 47.016 303.195,47.195 305.217,47.231 307.336 C 47.267 309.454,47.454 311.090,47.648 310.970 C 47.842 310.850,48.000 312.613,48.000 314.896 C 48.000 317.175,48.172 319.212,48.382 319.422 C 48.593 319.633,48.794 321.556,48.830 323.696 C 48.866 325.837,49.054 327.490,49.248 327.370 C 49.442 327.251,49.627 328.828,49.661 330.876 C 49.735 335.426,49.740 335.473,50.105 335.838 C 50.267 336.001,50.400 337.723,50.400 339.667 C 50.400 341.756,50.564 343.200,50.800 343.200 C 51.041 343.200,51.200 344.859,51.200 347.376 C 51.200 349.729,51.375 351.661,51.600 351.800 C 51.820 351.936,52.000 352.939,52.000 354.029 C 52.000 355.119,52.162 356.323,52.361 356.705 C 52.560 357.087,52.937 358.210,53.200 359.200 C 53.463 360.190,53.840 361.313,54.039 361.695 C 54.238 362.077,54.400 362.752,54.400 363.195 C 54.400 363.638,54.580 364.000,54.800 364.000 C 55.020 364.000,55.200 364.349,55.200 364.776 C 55.200 365.203,55.380 365.664,55.600 365.800 C 55.820 365.936,56.000 366.397,56.000 366.824 C 56.000 367.251,56.135 367.601,56.300 367.603 C 56.659 367.607,57.600 369.544,57.600 370.280 C 57.600 370.566,57.739 370.800,57.908 370.800 C 58.078 370.800,58.659 371.610,59.200 372.600 C 59.741 373.590,60.352 374.400,60.558 374.400 C 60.765 374.400,60.820 374.514,60.681 374.653 C 60.542 374.792,60.962 375.404,61.614 376.013 C 62.266 376.622,62.800 377.309,62.800 377.538 C 62.800 377.767,63.343 378.275,64.006 378.667 C 64.670 379.059,65.428 379.866,65.691 380.461 C 65.954 381.056,66.304 381.460,66.467 381.358 C 66.631 381.257,67.063 381.630,67.428 382.187 C 67.793 382.744,68.269 383.200,68.486 383.200 C 68.702 383.200,69.358 383.695,69.943 384.300 C 70.529 384.905,71.243 385.449,71.530 385.509 C 71.817 385.568,72.434 385.973,72.901 386.409 C 73.369 386.844,73.972 387.200,74.242 387.200 C 74.512 387.200,74.793 387.343,74.867 387.518 C 75.031 387.910,78.264 389.600,78.849 389.600 C 79.083 389.600,79.720 389.951,80.265 390.380 C 80.810 390.809,82.054 391.279,83.028 391.425 C 84.003 391.571,84.800 391.850,84.800 392.045 C 84.800 392.240,85.340 392.400,86.000 392.400 C 86.660 392.400,87.200 392.580,87.200 392.800 C 87.200 393.020,88.100 393.200,89.200 393.200 C 90.300 393.200,91.200 393.380,91.200 393.600 C 91.200 393.866,127.733 394.000,200.000 394.000 C 272.267 394.000,308.800 393.866,308.800 393.600 C 308.800 393.380,309.700 393.200,310.800 393.200 C 311.900 393.200,312.800 393.020,312.800 392.800 C 312.800 392.580,313.340 392.400,314.000 392.400 C 314.660 392.400,315.200 392.220,315.200 392.000 C 315.200 391.780,315.668 391.600,316.240 391.600 C 316.811 391.600,317.936 391.314,318.740 390.963 C 321.952 389.563,325.200 387.835,325.200 387.527 C 325.200 387.347,325.436 387.200,325.725 387.200 C 326.013 387.200,326.631 386.844,327.099 386.409 C 327.566 385.973,328.183 385.568,328.470 385.509 C 328.757 385.449,329.471 384.905,330.057 384.300 C 330.642 383.695,331.295 383.200,331.507 383.200 C 332.049 383.200,336.400 378.963,336.400 378.435 C 336.400 378.196,336.580 378.000,336.800 378.000 C 337.020 378.000,337.202 377.775,337.204 377.500 C 337.207 377.225,337.837 376.390,338.604 375.644 C 339.372 374.898,340.000 374.062,340.000 373.787 C 340.000 373.511,340.267 373.183,340.593 373.058 C 340.961 372.917,341.087 372.571,340.925 372.150 C 340.748 371.689,340.815 371.562,341.132 371.758 C 341.431 371.943,341.600 371.751,341.600 371.224 C 341.600 370.771,341.746 370.400,341.925 370.400 C 342.104 370.400,342.498 369.770,342.800 369.000 C 343.102 368.230,343.496 367.600,343.675 367.600 C 343.854 367.600,344.000 367.335,344.000 367.012 C 344.000 366.689,344.360 365.783,344.800 365.000 C 345.240 364.217,345.600 363.232,345.600 362.811 C 345.600 362.391,345.780 361.936,346.000 361.800 C 346.220 361.664,346.400 361.113,346.400 360.576 C 346.400 360.039,346.580 359.600,346.800 359.600 C 347.020 359.600,347.200 358.880,347.200 358.000 C 347.200 357.120,347.364 356.400,347.564 356.400 C 347.966 356.400,348.323 353.456,348.643 347.493 C 348.765 345.229,349.010 343.683,349.227 343.817 C 349.448 343.953,349.600 342.421,349.600 340.047 C 349.600 337.847,349.758 335.950,349.951 335.831 C 350.143 335.711,350.332 333.766,350.370 331.507 C 350.408 329.248,350.610 327.340,350.819 327.267 C 351.029 327.193,351.200 325.449,351.200 323.390 C 351.200 321.326,351.379 319.536,351.600 319.400 C 351.823 319.262,352.000 317.396,352.000 315.176 C 352.000 312.989,352.157 311.200,352.349 311.200 C 352.541 311.200,352.731 309.445,352.770 307.300 C 352.810 305.155,353.013 303.229,353.221 303.020 C 353.430 302.811,353.600 300.775,353.600 298.496 C 353.600 296.213,353.758 294.450,353.952 294.570 C 354.146 294.690,354.333 293.045,354.369 290.914 C 354.405 288.783,354.578 286.851,354.753 286.620 C 354.927 286.389,355.113 284.402,355.164 282.206 C 355.216 280.009,355.405 278.119,355.585 278.006 C 355.764 277.892,355.937 276.007,355.968 273.815 C 356.000 271.624,356.158 269.734,356.319 269.615 C 356.480 269.497,356.669 267.785,356.739 265.811 C 356.810 263.837,357.024 261.929,357.215 261.572 C 357.406 261.214,357.517 260.129,357.461 259.161 C 357.405 258.192,357.522 256.500,357.721 255.400 C 358.142 253.076,358.207 252.244,358.603 244.200 C 358.766 240.900,359.057 238.029,359.249 237.820 C 359.442 237.611,359.600 235.777,359.600 233.744 C 359.600 231.711,359.780 229.936,360.000 229.800 C 360.223 229.662,360.400 227.796,360.400 225.576 C 360.400 223.192,360.560 221.600,360.800 221.600 C 361.040 221.600,361.200 220.000,361.200 217.600 C 361.200 215.400,361.359 213.600,361.553 213.600 C 361.748 213.600,361.935 211.756,361.971 209.502 C 362.006 207.249,362.207 205.233,362.418 205.022 C 362.628 204.812,362.800 202.966,362.800 200.920 C 362.800 198.707,362.962 197.200,363.200 197.200 C 363.441 197.200,363.600 195.541,363.600 193.024 C 363.600 190.727,363.758 188.750,363.951 188.631 C 364.143 188.511,364.332 186.566,364.370 184.307 C 364.408 182.048,364.610 180.140,364.819 180.067 C 365.029 179.993,365.200 178.238,365.200 176.167 C 365.200 174.095,365.358 172.400,365.552 172.400 C 365.745 172.400,365.933 170.651,365.969 168.513 C 366.008 166.256,366.215 164.515,366.463 164.361 C 366.745 164.187,366.705 164.023,366.345 163.880 C 365.958 163.726,365.945 163.654,366.300 163.632 C 366.660 163.609,366.800 162.601,366.800 160.024 C 366.800 158.057,366.980 156.336,367.200 156.200 C 367.423 156.062,367.600 154.196,367.600 151.976 C 367.600 149.065,367.734 147.998,368.100 147.994 C 368.433 147.990,368.400 147.858,368.000 147.600 C 367.670 147.387,367.601 147.209,367.846 147.206 C 368.133 147.202,368.318 145.956,368.367 143.700 C 368.409 141.775,368.614 140.029,368.822 139.820 C 369.030 139.611,369.200 137.496,369.200 135.120 L 369.200 130.800 353.471 130.800 L 337.741 130.800 337.257 135.300 C 336.448 142.824,336.046 146.787,335.604 151.600 C 335.051 157.618,334.457 163.732,333.991 168.200 C 333.784 170.180,333.423 174.050,333.188 176.800 C 332.953 179.550,332.591 183.150,332.384 184.800 C 332.177 186.450,331.897 190.860,331.762 194.600 C 331.627 198.340,331.416 201.566,331.293 201.768 C 331.169 201.971,330.920 204.041,330.740 206.368 C 330.559 208.696,330.223 212.490,329.993 214.800 C 329.763 217.110,329.397 220.890,329.179 223.200 C 328.962 225.510,328.611 229.110,328.400 231.200 C 328.189 233.290,327.825 236.980,327.591 239.400 C 327.039 245.120,326.496 250.647,326.008 255.500 C 325.792 257.645,325.437 261.290,325.218 263.600 C 324.999 265.910,324.627 269.780,324.389 272.200 C 324.152 274.620,323.807 278.220,323.622 280.200 C 323.437 282.180,323.081 285.150,322.832 286.800 C 322.405 289.630,322.164 291.925,321.235 302.000 C 320.837 306.322,320.217 312.680,319.579 319.000 C 319.379 320.980,318.935 325.755,318.591 329.612 C 317.025 347.197,316.615 350.102,315.297 352.918 C 313.136 357.535,308.810 361.000,303.670 362.229 C 300.293 363.036,99.674 363.036,96.400 362.229 C 87.712 360.087,83.783 354.758,82.812 343.800 C 82.578 341.160,82.211 337.290,81.995 335.200 C 81.780 333.110,81.409 329.240,81.170 326.600 C 80.730 321.727,80.371 317.959,79.628 310.400 C 79.400 308.090,79.034 304.310,78.814 302.000 C 78.594 299.690,78.234 295.910,78.014 293.600 C 77.794 291.290,77.426 288.140,77.197 286.600 C 76.967 285.060,76.595 281.910,76.369 279.600 C 76.143 277.290,75.794 273.780,75.594 271.800 C 75.394 269.820,75.040 266.220,74.807 263.800 C 74.301 258.534,73.794 253.325,73.222 247.500 C 72.990 245.135,72.611 241.265,72.379 238.900 C 72.148 236.535,71.798 232.980,71.603 231.000 C 71.407 229.020,71.055 225.420,70.821 223.000 C 70.586 220.580,70.219 216.800,70.006 214.600 C 68.199 196.012,68.042 193.821,68.489 193.545 C 68.737 193.392,68.792 192.822,68.624 192.153 C 68.468 191.531,68.168 189.126,67.959 186.811 C 67.462 181.328,66.927 175.666,66.389 170.200 C 66.151 167.780,65.797 164.090,65.603 162.000 C 65.409 159.910,65.054 156.310,64.814 154.000 C 64.322 149.273,63.783 143.640,63.218 137.336 C 63.008 134.992,62.723 132.562,62.586 131.936 L 62.336 130.800 46.537 130.800 L 30.738 130.800 30.829 135.100 " stroke="none" fill="#e3e3e3" fill-rule="evenodd"></path><path id="path3" d="M62.586 131.936 C 62.723 132.562,63.008 134.992,63.218 137.336 C 63.783 143.640,64.322 149.273,64.814 154.000 C 65.054 156.310,65.409 159.910,65.603 162.000 C 65.797 164.090,66.151 167.780,66.389 170.200 C 66.927 175.666,67.462 181.328,67.959 186.811 C 68.168 189.126,68.468 191.531,68.624 192.153 C 68.787 192.803,68.736 193.395,68.505 193.543 C 68.244 193.709,68.212 195.073,68.414 197.400 L 68.727 201.000 68.664 197.400 L 68.600 193.800 84.300 193.695 L 100.000 193.591 97.861 190.095 C 94.754 185.017,92.683 181.108,90.820 176.800 C 89.916 174.710,89.013 172.640,88.814 172.200 C 88.616 171.760,88.224 170.680,87.945 169.800 C 87.665 168.920,87.293 168.029,87.118 167.820 C 86.943 167.611,86.800 167.114,86.800 166.715 C 86.800 166.316,86.638 165.677,86.439 165.295 C 85.830 164.122,84.006 157.222,83.242 153.200 C 81.917 146.220,81.199 139.789,81.199 134.900 L 81.200 130.800 71.768 130.800 L 62.336 130.800 62.586 131.936 M319.067 131.067 C 318.920 131.213,318.796 133.058,318.792 135.167 C 318.781 139.997,317.777 148.310,316.420 154.800 C 314.791 162.593,312.743 168.893,309.270 176.800 C 307.393 181.071,302.649 189.789,300.726 192.500 L 299.946 193.600 315.745 193.600 C 330.460 193.600,331.556 193.648,331.717 194.300 C 331.812 194.685,331.846 194.574,331.791 194.053 C 331.693 193.109,331.979 189.330,332.778 181.000 C 333.010 178.580,333.389 174.620,333.620 172.200 C 333.850 169.780,334.210 166.090,334.420 164.000 C 334.629 161.910,334.975 158.310,335.189 156.000 C 335.555 152.044,335.966 147.791,336.794 139.400 C 336.990 137.420,337.277 134.675,337.432 133.300 L 337.714 130.800 328.524 130.800 C 323.469 130.800,319.213 130.920,319.067 131.067 M331.277 198.250 C 331.235 199.597,331.111 201.308,331.001 202.050 L 330.803 203.400 331.220 202.073 C 331.449 201.343,331.573 199.633,331.495 198.273 L 331.354 195.800 331.277 198.250 M69.240 206.633 C 69.262 208.155,69.415 209.850,69.580 210.400 C 69.746 210.950,69.794 209.780,69.688 207.800 C 69.456 203.478,69.184 202.771,69.240 206.633 M330.471 206.600 C 330.427 207.700,330.304 209.320,330.197 210.200 L 330.003 211.800 330.421 210.470 C 330.650 209.739,330.774 208.119,330.695 206.870 L 330.551 204.600 330.471 206.600 M70.047 214.633 C 70.073 216.155,70.228 217.940,70.390 218.600 C 70.552 219.260,70.596 218.090,70.488 216.000 C 70.255 211.525,69.980 210.670,70.047 214.633 M329.671 214.600 C 329.627 215.700,329.504 217.320,329.397 218.200 L 329.203 219.800 329.621 218.470 C 329.850 217.739,329.974 216.119,329.895 214.870 L 329.751 212.600 329.671 214.600 M70.828 223.433 C 70.844 224.955,71.004 226.560,71.184 227.000 C 71.369 227.453,71.420 226.327,71.302 224.400 C 71.045 220.221,70.790 219.702,70.828 223.433 M328.876 223.450 C 328.834 224.357,328.698 225.707,328.573 226.450 C 328.390 227.545,328.431 227.668,328.793 227.100 C 329.040 226.713,329.175 225.371,329.096 224.100 C 328.984 222.328,328.934 222.179,328.876 223.450 M71.628 231.633 C 71.644 233.045,71.805 234.560,71.988 235.000 C 72.179 235.463,72.229 234.451,72.105 232.600 C 71.842 228.676,71.590 228.165,71.628 231.633 M328.074 231.650 C 328.033 232.447,327.898 233.707,327.773 234.450 C 327.589 235.547,327.631 235.668,327.994 235.098 C 328.240 234.712,328.376 233.452,328.295 232.298 C 328.191 230.821,328.126 230.629,328.074 231.650 M72.440 239.633 C 72.462 241.045,72.617 242.650,72.784 243.200 C 72.951 243.750,72.999 242.670,72.890 240.800 C 72.654 236.734,72.384 236.036,72.440 239.633 M327.274 239.850 C 327.233 240.757,327.105 242.107,326.989 242.850 C 326.797 244.084,326.816 244.115,327.207 243.216 C 327.443 242.676,327.571 241.326,327.492 240.216 C 327.358 238.340,327.343 238.315,327.274 239.850 M73.228 248.433 C 73.244 249.625,73.410 250.960,73.597 251.400 C 73.803 251.884,73.849 251.092,73.713 249.400 C 73.439 245.987,73.190 245.490,73.228 248.433 M326.470 248.450 C 326.431 249.028,326.298 250.107,326.173 250.850 C 325.989 251.951,326.030 252.070,326.396 251.495 C 326.643 251.107,326.777 250.027,326.693 249.095 C 326.609 248.163,326.508 247.873,326.470 248.450 M74.006 256.633 C 74.009 257.935,74.185 259.270,74.397 259.600 C 74.651 259.997,74.698 259.253,74.535 257.400 C 74.225 253.883,73.998 253.553,74.006 256.633 M325.670 256.450 C 325.631 257.028,325.498 258.108,325.373 258.850 C 325.189 259.951,325.230 260.070,325.596 259.495 C 325.843 259.107,325.977 258.027,325.893 257.095 C 325.809 256.163,325.708 255.873,325.670 256.450 M74.828 265.233 C 74.844 266.205,75.014 267.360,75.208 267.800 C 75.431 268.308,75.474 267.724,75.324 266.200 C 75.040 263.299,74.790 262.812,74.828 265.233 M324.863 264.600 C 324.823 265.260,324.704 266.520,324.597 267.400 L 324.403 269.000 324.823 267.660 C 325.054 266.923,325.174 265.663,325.089 264.860 C 324.952 263.566,324.926 263.537,324.863 264.600 M75.628 273.233 C 75.644 274.205,75.814 275.360,76.008 275.800 C 76.231 276.308,76.274 275.724,76.124 274.200 C 75.840 271.299,75.590 270.812,75.628 273.233 M323.867 274.347 C 323.698 275.527,323.647 276.581,323.754 276.688 C 324.049 276.982,324.490 274.236,324.322 273.152 C 324.232 272.570,324.055 273.034,323.867 274.347 M76.428 281.433 C 76.444 282.295,76.617 283.360,76.814 283.800 C 77.048 284.322,77.088 283.837,76.932 282.400 C 76.643 279.758,76.389 279.270,76.428 281.433 M323.264 281.450 C 323.229 281.918,323.105 282.907,322.989 283.650 C 322.796 284.886,322.815 284.917,323.208 284.014 C 323.445 283.472,323.568 282.482,323.483 281.814 C 323.391 281.097,323.302 280.948,323.264 281.450 M64.779 379.778 C 65.307 380.340,65.800 380.800,65.873 380.800 C 66.234 380.800,64.939 379.185,64.418 378.986 C 64.088 378.859,64.251 379.216,64.779 379.778 " stroke="none" fill="#cccccb" fill-rule="evenodd"></path><path id="path4" d="M194.829 51.021 C 189.485 52.180,183.649 55.846,180.655 59.925 C 178.884 62.338,176.800 66.249,176.800 67.161 C 176.800 67.534,176.638 68.011,176.441 68.220 C 175.992 68.695,175.631 71.202,175.378 75.600 C 175.198 78.719,174.791 80.917,174.008 83.000 C 173.138 85.312,171.890 88.112,171.600 88.400 C 171.489 88.510,171.129 89.122,170.799 89.761 C 168.750 93.731,161.791 98.837,156.844 100.000 C 145.245 102.727,131.200 91.955,131.200 80.332 C 131.200 67.831,124.831 62.911,108.373 62.700 L 100.546 62.600 99.631 64.500 C 99.127 65.545,98.588 66.400,98.432 66.400 C 98.277 66.400,97.902 67.030,97.600 67.800 C 97.298 68.570,96.904 69.200,96.725 69.200 C 96.546 69.200,96.400 69.560,96.400 70.000 C 96.400 70.440,96.220 70.800,96.000 70.800 C 95.780 70.800,95.600 71.149,95.600 71.576 C 95.600 72.003,95.439 72.452,95.242 72.574 C 94.821 72.834,92.000 78.601,92.000 79.201 C 92.000 79.603,91.197 81.205,90.798 81.600 C 90.687 81.710,90.360 82.520,90.071 83.400 C 89.783 84.280,89.379 85.405,89.174 85.900 C 88.968 86.395,88.642 87.205,88.450 87.700 C 88.257 88.195,87.897 89.103,87.650 89.719 C 87.402 90.334,87.200 91.200,87.200 91.642 C 87.200 92.085,87.020 92.336,86.800 92.200 C 86.558 92.051,86.400 92.596,86.400 93.576 C 86.400 94.469,86.220 95.200,86.000 95.200 C 85.780 95.200,85.600 95.740,85.600 96.400 C 85.600 97.060,85.420 97.600,85.200 97.600 C 84.980 97.600,84.800 98.230,84.800 99.000 C 84.800 99.770,84.620 100.400,84.400 100.400 C 84.180 100.400,84.000 101.109,84.000 101.976 C 84.000 102.843,83.820 103.664,83.600 103.800 C 83.380 103.936,83.200 104.847,83.200 105.824 C 83.200 106.801,83.020 107.600,82.800 107.600 C 82.580 107.600,82.400 108.590,82.400 109.800 C 82.400 111.010,82.247 112.000,82.061 112.000 C 81.874 112.000,81.684 113.291,81.637 114.870 C 81.591 116.448,81.379 118.065,81.166 118.463 C 80.951 118.866,80.828 121.810,80.889 125.094 L 81.000 131.000 200.100 131.101 L 319.200 131.201 319.200 124.601 C 319.200 120.467,319.051 118.000,318.800 118.000 C 318.572 118.000,318.400 116.808,318.400 115.224 C 318.400 113.697,318.220 112.336,318.000 112.200 C 317.780 112.064,317.600 110.973,317.600 109.776 C 317.600 108.579,317.420 107.600,317.200 107.600 C 316.980 107.600,316.800 106.700,316.800 105.600 C 316.800 104.500,316.620 103.600,316.400 103.600 C 316.180 103.600,316.000 102.981,316.000 102.224 C 316.000 101.467,315.840 100.748,315.644 100.627 C 315.449 100.506,315.179 99.776,315.044 99.004 C 314.910 98.232,314.690 96.970,314.556 96.200 C 314.422 95.430,314.152 94.800,313.956 94.800 C 313.760 94.800,313.600 94.509,313.600 94.153 C 313.600 93.251,311.868 88.229,311.501 88.067 C 311.335 87.993,311.200 87.408,311.200 86.767 C 311.200 86.125,311.020 85.600,310.800 85.600 C 310.580 85.600,310.400 85.251,310.400 84.824 C 310.400 84.397,310.220 83.936,310.000 83.800 C 309.780 83.664,309.600 83.113,309.600 82.576 C 309.600 82.039,309.420 81.600,309.200 81.600 C 308.980 81.600,308.800 81.277,308.800 80.882 C 308.800 80.021,305.260 72.657,304.754 72.467 C 304.559 72.393,304.400 71.988,304.400 71.567 C 304.400 71.145,304.220 70.800,304.000 70.800 C 303.780 70.800,303.600 70.440,303.600 70.000 C 303.600 69.560,303.454 69.200,303.275 69.200 C 303.096 69.200,302.702 68.570,302.400 67.800 C 302.098 67.030,301.704 66.400,301.525 66.400 C 301.346 66.400,301.200 66.130,301.200 65.800 C 301.200 65.470,301.020 65.200,300.800 65.200 C 300.580 65.200,300.400 64.840,300.400 64.400 C 300.400 63.960,300.220 63.600,300.000 63.600 C 299.780 63.600,299.600 63.375,299.600 63.100 C 299.601 62.713,297.770 62.624,291.500 62.705 C 280.343 62.850,277.673 63.559,273.751 67.415 C 270.505 70.607,269.541 73.232,268.800 80.908 C 267.134 98.145,245.635 106.562,233.542 94.711 C 230.576 91.804,227.200 87.150,227.200 85.968 C 227.200 85.760,227.041 85.277,226.847 84.895 C 225.541 82.328,225.220 80.940,224.789 76.000 C 224.336 70.803,223.958 68.421,223.547 68.167 C 223.356 68.049,223.200 67.622,223.200 67.217 C 223.200 66.265,221.165 62.404,219.385 59.980 C 214.102 52.782,203.889 49.056,194.829 51.021 M274.474 150.876 C 266.927 154.535,266.983 164.378,274.571 167.944 C 282.089 171.478,290.196 163.034,286.587 155.429 C 284.428 150.879,278.818 148.771,274.474 150.876 M246.759 157.301 C 242.722 159.976,242.946 165.830,247.168 167.984 C 253.288 171.106,259.191 163.578,254.635 158.462 C 252.641 156.223,249.160 155.710,246.759 157.301 M77.372 288.200 C 77.532 288.640,77.832 290.980,78.040 293.400 C 78.247 295.820,78.589 299.600,78.800 301.800 C 79.011 304.000,79.355 307.843,79.566 310.341 C 79.777 312.839,80.050 314.984,80.174 315.108 C 80.491 315.424,80.442 314.017,79.975 309.400 C 79.752 307.200,79.406 303.600,79.206 301.400 C 78.171 290.024,77.945 288.188,77.532 287.810 C 77.206 287.513,77.162 287.620,77.372 288.200 M322.267 287.867 C 322.120 288.013,322.018 288.778,322.040 289.567 L 322.080 291.000 322.446 289.440 C 322.815 287.868,322.759 287.375,322.267 287.867 M321.290 296.400 C 321.009 299.370,320.704 303.330,320.612 305.200 L 320.445 308.600 320.822 305.200 C 321.029 303.330,321.397 300.090,321.640 298.000 C 321.883 295.910,322.018 293.480,321.941 292.600 C 321.859 291.671,321.586 293.266,321.290 296.400 M146.759 307.301 C 142.722 309.976,142.946 315.830,147.168 317.984 C 153.288 321.106,159.191 313.578,154.635 308.462 C 152.641 306.223,149.160 305.710,146.759 307.301 M319.810 312.066 C 319.646 313.973,319.596 315.773,319.701 316.066 C 319.805 316.360,320.025 315.040,320.190 313.134 C 320.354 311.227,320.404 309.427,320.299 309.134 C 320.195 308.840,319.975 310.160,319.810 312.066 M80.423 318.033 C 80.436 319.445,80.605 321.320,80.800 322.200 C 81.045 323.310,81.084 322.576,80.929 319.800 C 80.672 315.224,80.389 314.234,80.423 318.033 M318.989 320.589 C 318.832 322.485,318.797 324.130,318.913 324.246 C 319.029 324.362,319.253 322.906,319.411 321.011 C 319.568 319.115,319.603 317.470,319.487 317.354 C 319.371 317.238,319.147 318.694,318.989 320.589 M268.091 319.668 C 260.535 323.333,260.797 333.475,268.533 336.775 C 277.711 340.691,285.486 328.724,278.381 321.619 C 275.510 318.748,271.541 317.996,268.091 319.668 M81.288 327.000 C 81.278 328.100,81.410 329.900,81.582 331.000 L 81.893 333.000 81.912 331.000 C 81.922 329.900,81.790 328.100,81.618 327.000 L 81.307 325.000 81.288 327.000 M118.008 325.904 C 110.966 329.371,110.708 338.810,117.552 342.535 C 123.634 345.846,131.200 341.335,131.200 334.400 C 131.200 327.839,123.781 323.061,118.008 325.904 M318.294 327.800 C 318.137 328.680,318.031 330.480,318.058 331.800 L 318.106 334.200 318.455 331.000 C 318.844 327.437,318.737 325.312,318.294 327.800 M82.088 335.000 C 82.078 336.100,82.210 337.900,82.382 339.000 L 82.693 341.000 82.712 339.000 C 82.722 337.900,82.590 336.100,82.418 335.000 L 82.107 333.000 82.088 335.000 M317.494 336.156 C 317.332 337.232,317.223 339.032,317.252 340.156 C 317.300 342.040,317.332 341.965,317.660 339.200 C 318.078 335.680,317.942 333.182,317.494 336.156 M82.865 343.200 C 82.603 352.868,87.744 360.095,96.400 362.229 C 98.227 362.680,115.845 362.757,200.400 362.688 L 302.200 362.604 199.800 362.383 C 143.480 362.262,96.860 362.023,96.200 361.853 C 88.539 359.880,84.301 354.231,83.259 344.600 C 83.011 342.300,82.899 341.906,82.865 343.200 M316.673 345.400 C 316.161 351.030,314.893 353.920,311.406 357.402 C 308.781 360.021,307.476 360.780,303.600 361.937 L 302.200 362.355 303.800 362.126 C 311.370 361.045,318.190 351.358,317.102 343.230 C 317.026 342.664,316.833 343.640,316.673 345.400 " stroke="none" fill="#e3dbbc" fill-rule="evenodd"></path></g></svg>